<?xml version="1.0" standalone="no"?>
<!DOCTYPE svg PUBLIC "-//W3C//DTD SVG 20010904//EN"
 "http://www.w3.org/TR/2001/REC-SVG-20010904/DTD/svg10.dtd">
<svg version="1.0" xmlns="http://www.w3.org/2000/svg"
 width="512.000000pt" height="512.000000pt" viewBox="0 0 512.000000 512.000000"
 preserveAspectRatio="xMidYMid meet">
<metadata>
Created by potrace 1.14, written by Peter Selinger 2001-2017
</metadata>
<g transform="translate(0.000000,512.000000) scale(0.100000,-0.100000)"
fill="#000000" stroke="none">
<path d="M2527 5084 c-1 -1 -54 -4 -117 -7 -332 -17 -652 -102 -965 -257 -302
-149 -595 -375 -796 -615 -19 -22 -36 -42 -39 -45 -21 -21 -88 -112 -147 -200
-184 -273 -328 -623 -379 -920 -3 -14 -9 -47 -14 -75 -9 -48 -16 -104 -25
-205 -10 -108 -5 -386 10 -500 80 -646 402 -1233 905 -1650 357 -296 862 -511
1305 -555 33 -3 78 -8 100 -11 43 -5 330 -5 380 0 84 8 182 19 200 22 10 2 36
6 56 9 72 11 275 64 374 98 454 156 847 431 1152 807 288 356 490 841 538
1292 4 29 8 69 11 88 6 46 6 329 -1 400 -11 123 -29 242 -46 320 -6 25 -12 53
-14 62 -46 225 -201 583 -344 798 -155 233 -378 474 -581 626 -337 254 -779
441 -1160 490 -30 3 -66 8 -80 10 -41 6 -319 21 -323 18z m283 -409 c19 -2 54
-7 77 -10 24 -4 45 -6 48 -6 2 0 19 -5 37 -10 18 -5 47 -12 63 -15 49 -8 233
-64 299 -91 220 -88 486 -251 629 -385 19 -18 52 -49 73 -69 114 -104 244
-267 340 -424 114 -186 168 -311 243 -560 5 -16 13 -48 17 -70 4 -22 8 -42 9
-45 1 -3 5 -27 10 -55 4 -27 9 -59 11 -70 19 -96 26 -460 11 -536 l-7 -36 -98
19 c-92 17 -272 24 -362 13 -19 -2 -59 -7 -88 -10 -29 -3 -60 -9 -68 -12 -9
-3 -13 0 -10 8 23 65 32 290 16 386 -23 142 -80 281 -170 415 l-50 74 24 99
c34 138 38 172 41 315 2 135 -8 192 -47 262 -20 38 -28 43 -62 46 -51 4 -185
-23 -260 -54 -92 -37 -184 -95 -259 -164 -51 -47 -73 -61 -90 -57 -12 2 -65
16 -117 31 -52 14 -113 28 -135 31 -22 2 -63 9 -91 13 -60 10 -328 8 -399 -2
-87 -13 -188 -36 -258 -57 l-68 -21 -64 60 c-139 130 -349 221 -505 218 l-54
-1 -28 -55 c-16 -30 -33 -80 -38 -110 -9 -55 -6 -262 4 -310 3 -14 11 -51 16
-82 6 -32 17 -77 24 -102 13 -43 12 -47 -12 -83 -14 -21 -28 -40 -32 -43 -15
-12 -82 -133 -110 -199 -49 -115 -72 -222 -74 -351 -1 -63 1 -135 5 -160 5
-25 11 -57 14 -73 l5 -27 -63 5 c-34 3 -84 8 -112 11 -98 9 -351 12 -405 4
-112 -16 -146 -22 -190 -30 -25 -5 -47 -6 -50 -4 -9 9 -15 113 -14 264 0 196
5 245 49 475 67 350 320 795 600 1056 22 20 56 52 75 69 98 92 317 239 465
313 124 61 352 141 475 166 123 24 153 29 245 37 39 4 72 8 74 10 5 4 349 -5
391 -11z m-1710 -2399 c14 -2 61 -7 104 -10 44 -4 81 -7 81 -9 1 -1 5 -15 9
-30 l7 -28 -68 6 c-91 9 -369 10 -413 2 -106 -20 -177 -41 -263 -79 -38 -16
-71 -27 -74 -24 -3 3 -11 34 -18 71 -12 63 -11 66 9 70 39 9 141 25 196 31 30
3 57 8 60 11 5 5 335 -5 370 -11z m3390 -1 c85 -9 169 -28 173 -39 8 -20 -13
-58 -28 -53 -22 9 -154 35 -215 43 -59 7 -235 7 -337 0 -65 -5 -82 6 -40 24
27 12 284 37 347 33 25 -1 70 -5 100 -8z m-71 -99 c95 -10 213 -39 218 -54 8
-21 -42 -202 -92 -327 -112 -289 -298 -568 -510 -766 -22 -20 -56 -52 -75 -69
-63 -59 -191 -152 -299 -218 -113 -70 -277 -152 -301 -152 -13 0 -15 30 -15
213 0 177 -3 223 -19 282 -44 163 -130 319 -226 414 -29 29 -51 53 -49 55 2 2
23 6 46 9 123 17 297 70 418 128 210 99 365 242 456 422 18 36 36 57 47 57 26
1 177 12 179 14 4 3 175 -2 222 -8z m-3184 -20 c11 -3 36 -5 55 -5 31 -1 38
-6 60 -48 142 -274 473 -481 860 -538 24 -4 47 -8 51 -11 3 -2 -17 -28 -45
-57 -28 -30 -72 -79 -98 -109 -75 -88 -163 -117 -363 -122 -114 -3 -183 7
-236 34 -49 26 -136 107 -190 177 -61 80 -97 115 -149 146 -87 50 -240 68
-240 27 0 -5 14 -22 32 -37 134 -115 206 -206 294 -372 65 -122 129 -184 234
-225 63 -25 113 -30 303 -30 l167 0 0 -233 c0 -195 -2 -233 -14 -233 -24 0
-229 78 -316 121 -221 108 -452 276 -610 444 -21 22 -53 56 -71 75 -47 51
-179 230 -197 268 -9 17 -19 32 -24 32 -4 0 -8 4 -8 9 0 5 -18 40 -40 77 -50
85 -123 257 -156 367 -14 45 -29 92 -34 104 -6 14 -5 24 3 31 34 25 205 88
267 98 19 3 51 9 70 13 35 7 358 5 395 -3z m1502 -1215 c15 -23 18 -56 19
-263 1 -131 -1 -238 -5 -238 -3 -1 -48 -3 -98 -7 l-93 -5 0 238 c0 263 3 278
58 305 41 21 94 8 119 -30z m-399 -106 c19 -18 27 -91 26 -229 -1 -86 -4 -160
-7 -163 -3 -3 -39 0 -79 7 -40 6 -80 12 -88 13 -23 3 -25 16 -24 171 1 182 11
207 84 229 13 4 76 -16 88 -28z m789 -7 c15 -17 18 -41 21 -167 l3 -147 -73
-18 c-40 -10 -85 -20 -99 -22 l-26 -5 1 163 c2 171 8 196 48 215 51 25 90 19
125 -19z"/>
</g>
</svg>
